<svg version="1.1" xmlns="http://www.w3.org/2000/svg" xmlns:xlink="http://www.w3.org/1999/xlink"
     preserveAspectRatio="xMidYMid meet" viewBox="0 0 640 640" width="640" height="640">
    <defs>
        <path d="M299 230.31C300.14 226.32 303.57 225.17 303.57 225.17C301.67 225.45 298.43 223.94 296.14 221.75C293.62 219.32 292.14 216.18 292.14 216.18C298.23 216.69 303.78 220.36 304.12 220.59C297.39 214.4 293.97 204.96 293.86 204.66C303 208.85 304.71 214.32 304.71 214.32C303.57 205.94 308.71 198.9 308.71 198.9C308.71 198.9 313.85 205.94 312.71 214.32C312.71 214.32 314.42 208.85 323.55 204.66C323.45 204.96 320.03 214.4 313.29 220.59C313.64 220.36 319.18 216.69 325.27 216.18C325.27 216.18 323.8 219.32 321.27 221.75C318.99 223.94 315.75 225.45 313.85 225.17C313.85 225.17 317.28 226.32 318.42 230.31C318.42 230.31 311.56 230.55 308.71 226.89C305.85 230.55 300.94 229.63 299 230.31Z"
              id="b1WUDWT72q"></path>
        <path d="M308.14 213.18L309.28 213.18L309.28 214.32L308.14 214.32L308.14 213.18Z" id="c3RH7S6qh"></path>
        <path d="M308.14 204.04L309.28 204.04L309.28 212.04L308.14 212.04L308.14 204.04Z" id="g3osEishVc"></path>
        <path d="M319.26 219.55C319.25 219.55 318.88 219.78 318.21 220.11C318.26 220.21 318.66 221.03 318.71 221.14C319.44 220.78 319.85 220.53 319.86 220.52C319.74 220.32 319.32 219.65 319.26 219.55Z"
              id="d1LSMOjsme"></path>
        <path d="M325.22 215.61C321.83 215.89 318.64 217.11 316.36 218.22C321.44 212.24 323.97 205.19 324.1 204.85C324.13 204.76 324.28 204.34 324.55 203.58C323.81 203.91 323.4 204.1 323.32 204.14C317.75 206.69 314.87 209.71 313.45 211.76C313.42 204.48 309.36 198.83 309.17 198.56C309.14 198.52 308.98 198.31 308.71 197.93C308.43 198.31 308.28 198.52 308.25 198.56C308.05 198.83 303.99 204.48 303.97 211.76C302.54 209.71 299.66 206.69 294.1 204.14C294.01 204.1 293.6 203.91 292.87 203.58C293.14 204.34 293.29 204.76 293.32 204.85C293.44 205.19 295.98 212.24 301.06 218.22C298.78 217.11 295.58 215.89 292.19 215.61C292.13 215.6 291.8 215.58 291.21 215.53C291.46 216.06 291.6 216.36 291.63 216.42C291.69 216.55 293.18 219.69 295.75 222.16C297.5 223.84 299.75 225.11 301.64 225.58C300.5 226.39 299.12 227.82 298.45 230.16C298.43 230.2 298.37 230.44 298.25 230.86C298.68 230.87 298.93 230.88 298.98 230.88C299.24 230.89 304.83 231.05 308.14 228.29C308.14 228.65 308.14 230.47 308.14 233.74L309.28 233.74C309.28 230.47 309.28 228.65 309.28 228.29C312.19 230.72 316.85 230.89 318.12 230.89C318.3 230.89 318.41 230.89 318.44 230.88C318.49 230.88 318.73 230.87 319.17 230.86C319.05 230.44 318.98 230.2 318.97 230.16C318.3 227.82 316.91 226.39 315.77 225.58C317.67 225.11 319.92 223.84 321.67 222.16C324.24 219.69 325.73 216.55 325.79 216.42C325.82 216.36 325.96 216.06 326.21 215.53C325.68 215.57 325.36 215.6 325.22 215.61ZM313.93 224.61C313.9 224.72 313.69 225.6 313.67 225.71C313.7 225.72 316.4 226.66 317.62 229.73C315.83 229.67 311.42 229.24 309.28 226.67C309.28 226.5 309.28 225.12 309.28 224.95C311.38 227.06 313.53 227.95 313.64 227.99C313.68 227.88 314.02 227.03 314.06 226.93C314.03 226.92 311.55 225.9 309.43 223.44C312.85 223.32 315.72 222.42 317.56 221.65C317.52 221.55 317.17 220.7 317.12 220.6C315.44 221.3 312.88 222.11 309.84 222.28C313.66 216.92 318.24 211.31 318.29 211.25C318.2 211.18 317.49 210.6 317.4 210.53C317.36 210.59 313.05 215.86 309.28 221.1C309.28 220.72 309.28 218.84 309.28 215.46L308.14 215.46C308.14 218.84 308.14 220.72 308.14 221.1C305.63 217.62 302.91 214.15 301.4 212.26C301.31 212.33 300.6 212.9 300.51 212.97C302.09 214.95 305 218.66 307.58 222.29C302.13 221.98 298.2 219.57 298.16 219.55C298.1 219.64 297.61 220.42 297.55 220.52C297.74 220.63 301.98 223.23 307.97 223.44C307.22 224.31 306.35 225.1 305.37 225.78C305.44 225.88 305.96 226.63 306.02 226.72C306.79 226.19 307.49 225.59 308.14 224.94C308.14 225.11 308.14 226.5 308.14 226.67C305.99 229.23 301.59 229.67 299.8 229.73C301 226.68 303.63 225.75 303.75 225.71C303.72 225.6 303.51 224.72 303.49 224.61C301.78 224.85 298.67 223.38 296.54 221.33C294.95 219.81 293.77 217.96 293.15 216.87C298.79 217.68 303.76 221.04 303.82 221.08C303.89 220.99 304.45 220.27 304.52 220.18C299.36 215.45 296.13 208.67 294.93 205.81C302.56 209.72 304.15 214.44 304.16 214.49C304.28 214.47 305.16 214.27 305.28 214.24C304.38 207.69 307.5 201.9 308.71 199.94C309.92 201.89 313.04 207.68 312.14 214.24C312.25 214.27 313.14 214.47 313.25 214.49C313.27 214.44 314.86 209.72 322.48 205.81C321.28 208.67 318.06 215.44 312.89 220.18C312.96 220.27 313.53 220.99 313.6 221.08C313.65 221.04 318.62 217.68 324.26 216.87C323.64 217.96 322.47 219.8 320.88 221.33C318.75 223.38 315.63 224.85 313.93 224.61Z"
              id="b1YxdUQxxg"></path>
        <path d="M299.13 211.26C299.13 211.26 299.38 211.57 299.82 212.11C299.91 212.04 300.62 211.46 300.71 211.39C300.27 210.84 300.01 210.53 300.01 210.53C299.83 210.68 299.3 211.11 299.13 211.26Z"
              id="b2wR4wrctY"></path>
        <path d="M303.78 227.99C303.8 227.98 304.29 227.78 305.02 227.36C304.96 227.26 304.5 226.47 304.45 226.37C303.79 226.75 303.36 226.93 303.35 226.93C303.44 227.14 303.69 227.78 303.78 227.99Z"
              id="ccOjiqhEL"></path>
        <path d="M276.86 214.16C275.4 214.16 274.19 212.98 274.19 211.49C274.19 211.49 274.19 211.49 274.19 211.49L274.19 210.76L267.68 210.76C267.68 211.2 267.68 211.44 267.68 211.49C267.68 212.96 266.49 214.16 265 214.16C263.2 214.16 261.74 215.63 261.74 217.43C261.74 219.85 261.74 239.2 261.74 241.62C261.74 242.97 262.83 244.06 264.17 244.06C265.52 244.06 276.32 244.06 277.68 244.06C279.02 244.06 280.11 242.97 280.11 241.62C280.11 239.2 280.11 219.85 280.11 217.43C280.13 215.63 278.67 214.16 276.86 214.16C276.86 214.16 276.86 214.16 276.86 214.16Z"
              id="a2M9WeUFBv"></path>
        <path d="M280.13 217.23C280.13 217.23 280.13 217.23 280.13 217.23C280.13 230.95 280.13 238.57 280.13 240.1C280.13 240.1 280.13 240.1 280.13 240.1C269.11 240.1 262.98 240.1 261.76 240.1C261.76 240.1 261.76 240.1 261.76 240.1C261.76 226.38 261.76 218.76 261.76 217.23C261.76 217.23 261.76 217.23 261.76 217.23C272.78 217.23 278.91 217.23 280.13 217.23Z"
              id="c16zvyGF6i"></path>
        <path d="M280.13 217.23C280.13 217.23 280.13 217.23 280.13 217.23C280.13 221.29 280.13 223.55 280.13 224C280.13 224 280.13 224 280.13 224C269.11 224 262.98 224 261.76 224C261.76 224 261.76 224 261.76 224C261.76 219.94 261.76 217.68 261.76 217.23C261.76 217.23 261.76 217.23 261.76 217.23C272.78 217.23 278.91 217.23 280.13 217.23Z"
              id="b2JKUAXC5"></path>
        <path d="M276.65 204.23C277.16 204.23 277.58 204.64 277.58 205.16C277.58 205.43 277.58 207.63 277.58 207.91C277.58 208.42 277.16 208.84 276.65 208.84C275.51 208.84 266.38 208.84 265.24 208.84C264.73 208.84 264.31 208.42 264.31 207.91C264.31 207.63 264.31 205.45 264.31 205.18C264.31 204.64 264.73 204.23 265.24 204.23C267.52 204.23 275.51 204.23 276.65 204.23Z"
              id="c3aEP1jERv"></path>
        <path d="M276.65 204.21C276.65 203.16 275.79 202.33 274.76 202.33C274 202.33 267.9 202.33 267.14 202.33C266.09 202.33 265.26 203.18 265.26 204.21C265.26 204.21 265.26 204.21 265.26 204.23L276.65 204.23C276.65 204.21 276.65 204.21 276.65 204.21Z"
              id="ekOAMJYaO"></path>
        <path d="M266.89 210.03C266.89 210.44 267.22 210.78 267.64 210.78C268.3 210.78 273.61 210.78 274.27 210.78C274.69 210.78 275.02 210.44 275.02 210.03C275.02 210.03 275.02 210.03 275.02 210.03C275.02 209.95 275.02 209.56 275.02 208.86L266.89 208.86C266.89 209.56 266.89 209.95 266.89 210.03Z"
              id="dKvcz2dkt"></path>
        <path d="M273.46 202.33C273.46 199.06 273.46 197.24 273.46 196.88C273.44 195.5 272.31 194.37 270.92 194.39C269.56 194.41 268.43 195.52 268.43 196.88C268.43 197.24 268.43 199.05 268.43 202.31L273.46 202.31L273.46 202.33Z"
              id="a2ohIjpiby"></path>
        <path d="M276.78 229.55C276.72 229.51 276.67 229.51 276.61 229.53C275.56 230.18 273.38 230.81 271.74 233.19C272.33 231.7 272.39 230.06 271.89 228.56C271.82 228.31 271.2 226.38 271.12 226.14C271.1 226.04 271 226 270.9 226.02C270.84 226.04 270.81 226.08 270.79 226.14C270.71 226.38 270.09 228.31 270.01 228.56C269.52 230.08 269.58 231.7 270.17 233.19C268.53 230.81 266.35 230.18 265.3 229.53C265.22 229.49 265.1 229.51 265.06 229.6C265.02 229.66 265.04 229.74 265.08 229.78C265.97 230.85 266.73 232.53 268.96 233.82C267.4 233.56 266.39 234.04 265.36 234.22C265.26 234.24 265.2 234.34 265.22 234.44C265.24 234.49 265.28 234.53 265.34 234.55C266.33 234.81 267.36 235.41 269 235.21C268.41 235.64 268.21 236.08 267.76 236.65C267.7 236.73 267.72 236.83 267.8 236.89C267.84 236.93 267.89 236.93 267.95 236.91C268.51 236.69 269.6 236.65 270.45 235.58C270.49 235.52 270.57 235.52 270.61 235.56C270.65 235.58 270.67 235.64 270.65 235.68C270.62 235.86 270.36 237.29 270.33 237.46C270.31 237.56 270.37 237.66 270.47 237.68C270.49 237.68 270.49 237.68 270.51 237.68C270.6 237.68 271.33 237.68 271.42 237.68C271.52 237.68 271.6 237.6 271.6 237.5C271.6 237.48 271.6 237.48 271.6 237.46C271.57 237.29 271.31 235.86 271.28 235.68C271.26 235.62 271.32 235.56 271.38 235.54C271.42 235.54 271.46 235.54 271.5 235.58C272.35 236.67 273.44 236.71 273.99 236.91C274.09 236.93 274.19 236.89 274.21 236.79C274.23 236.73 274.21 236.69 274.19 236.63C273.74 236.04 273.54 235.6 272.94 235.19C274.61 235.37 275.6 234.79 276.61 234.53C276.71 234.51 276.74 234.42 276.72 234.32C276.71 234.26 276.67 234.22 276.61 234.2C275.56 234 274.59 233.52 273 233.8C275.18 232.53 275.95 230.83 276.82 229.78C276.88 229.7 276.86 229.6 276.78 229.55Z"
              id="k2EvLaU0OD"></path>
        <path d="M260.91 211.63C260.91 211.42 260.91 211.3 260.91 211.27C260.91 211 260.69 210.78 260.41 210.78C260.13 210.78 259.92 211 259.92 211.27C259.92 211.3 259.92 211.42 259.92 211.63C259.7 211.63 259.58 211.63 259.56 211.63C259.28 211.63 259.07 211.85 259.07 212.12C259.07 212.4 259.28 212.62 259.56 212.62C259.58 212.62 259.7 212.62 259.92 212.62C259.92 212.83 259.92 212.95 259.92 212.98C259.92 213.25 260.13 213.47 260.41 213.47C260.69 213.47 260.91 213.25 260.91 212.98C260.91 212.95 260.91 212.83 260.91 212.62C261.12 212.62 261.24 212.62 261.26 212.62C261.54 212.62 261.76 212.4 261.76 212.12C261.76 211.85 261.54 211.63 261.26 211.63C261.22 211.63 261.1 211.63 260.91 211.63Z"
              id="a6tRoQyUL"></path>
        <path d="M278.53 195.91C278.51 195.89 278.51 195.85 278.49 195.83C278.47 195.81 278.45 195.77 278.43 195.75C278.23 195.57 277.93 195.57 277.73 195.75C277.71 195.77 277.7 195.79 277.68 195.83C277.64 195.89 277.62 195.95 277.6 196.01C277.58 196.07 277.58 196.15 277.6 196.21C277.6 196.25 277.62 196.27 277.62 196.31C277.64 196.35 277.64 196.37 277.66 196.39C277.68 196.41 277.7 196.45 277.71 196.47C277.91 196.66 278.21 196.66 278.41 196.47C278.41 196.47 278.41 196.47 278.41 196.47C278.43 196.45 278.45 196.43 278.47 196.39C278.49 196.37 278.51 196.33 278.51 196.31C278.53 196.29 278.53 196.25 278.53 196.21C278.57 196.13 278.57 196.07 278.55 196.01C278.55 195.97 278.53 195.95 278.53 195.91Z"
              id="ayqKppS1J"></path>
        <path d="M258.27 216.44C258.25 216.42 258.25 216.38 258.23 216.36C258.21 216.34 258.19 216.3 258.17 216.28C257.98 216.1 257.68 216.1 257.48 216.28C257.46 216.3 257.44 216.32 257.42 216.36C257.38 216.42 257.36 216.48 257.34 216.54C257.32 216.6 257.32 216.68 257.34 216.74C257.34 216.78 257.36 216.8 257.36 216.84C257.38 216.88 257.38 216.9 257.4 216.92C257.42 216.94 257.44 216.97 257.46 216.99C257.66 217.19 257.96 217.19 258.15 216.99C258.15 216.99 258.15 216.99 258.15 216.99C258.17 216.97 258.19 216.95 258.21 216.92C258.23 216.9 258.25 216.86 258.25 216.84C258.27 216.82 258.27 216.78 258.27 216.74C258.31 216.68 258.31 216.6 258.29 216.54C258.29 216.5 258.27 216.48 258.27 216.44Z"
              id="d4w3QXbXQ"></path>
        <path d="M280.7 198.39C280.7 198.37 280.68 198.35 280.66 198.35C280.64 198.35 280.64 198.37 280.63 198.39C280.47 199.2 279.83 199.81 279.04 199.97C279.02 199.97 279 199.99 279 200.01C279 200.03 279.02 200.03 279.04 200.05C279.85 200.21 280.47 200.84 280.63 201.63C280.63 201.65 280.64 201.67 280.66 201.67C280.68 201.67 280.68 201.65 280.7 201.63C280.86 200.82 281.5 200.21 282.29 200.05C282.31 200.05 282.33 200.03 282.33 200.01C282.31 199.97 282.29 199.97 282.29 199.97C281.48 199.81 280.86 199.18 280.7 198.39Z"
              id="b18UtfinNL"></path>
        <path d="M265.24 209.35C264.45 209.35 263.82 208.72 263.82 207.93C263.82 207.65 263.82 205.45 263.82 205.18C263.82 204.38 264.45 203.75 265.24 203.75C266.38 203.75 275.51 203.75 276.65 203.75C277.44 203.75 278.07 204.38 278.07 205.18C278.07 205.45 278.07 207.65 278.07 207.93C278.07 208.7 277.44 209.35 276.65 209.35C274.36 209.35 266.38 209.35 265.24 209.35ZM265.24 204.72C265 204.72 264.81 204.92 264.81 205.16C264.81 205.43 264.81 207.63 264.81 207.91C264.81 208.15 265 208.34 265.24 208.34C266.38 208.34 275.51 208.34 276.65 208.34C276.88 208.34 277.08 208.15 277.08 207.91C277.08 207.63 277.08 205.45 277.08 205.18C277.08 204.94 276.88 204.74 276.65 204.74C275.89 204.74 272.08 204.74 265.24 204.74C265.24 204.73 265.24 204.72 265.24 204.72Z"
              id="b6UWbpcD"></path>
        <path d="M265.24 204.72C264.96 204.72 264.75 204.5 264.75 204.23C264.75 204.22 264.75 204.21 264.75 204.21C264.75 202.9 265.82 201.83 267.12 201.83C267.89 201.83 273.98 201.83 274.75 201.83C276.05 201.83 277.12 202.9 277.12 204.21C277.12 204.21 277.12 204.22 277.12 204.23C277.12 204.5 276.9 204.72 276.65 204.72C276.65 204.72 276.65 204.72 276.65 204.72C269.8 204.72 266 204.72 265.24 204.72ZM276.07 203.73C275.87 203.18 275.36 202.8 274.76 202.8C274 202.8 267.9 202.8 267.14 202.8C266.55 202.82 266.03 203.18 265.84 203.73C265.84 203.73 265.84 203.73 265.84 203.73C271.98 203.73 275.39 203.73 276.07 203.73Z"
              id="c1hzbYyTlW"></path>
        <path d="M267.62 211.25C266.92 211.25 266.39 210.7 266.37 210.01C266.37 209.89 266.37 208.96 266.37 208.84C266.37 208.56 266.59 208.34 266.87 208.34C267.68 208.34 274.17 208.34 274.98 208.34C275.26 208.34 275.48 208.56 275.48 208.84C275.48 208.96 275.48 209.89 275.48 210.01C275.5 210.7 274.94 211.25 274.25 211.25C272.92 211.25 268.28 211.25 267.62 211.25ZM267.38 210.03C267.38 210.16 267.5 210.28 267.64 210.28C268.3 210.28 273.61 210.28 274.27 210.28C274.41 210.28 274.53 210.16 274.53 210.03C274.53 209.98 274.53 209.76 274.53 209.35L267.38 209.35C267.38 209.76 267.38 209.98 267.38 210.03Z"
              id="b1of3hUiCP"></path>
        <path d="M264.19 244.55C262.57 244.55 261.26 243.24 261.26 241.62C261.26 239.2 261.26 219.85 261.26 217.43C261.26 215.35 262.95 213.67 265.02 213.67C266.21 213.67 267.2 212.7 267.2 211.49C267.2 211.42 267.2 210.83 267.2 210.76C267.2 210.48 267.42 210.26 267.7 210.26C268.35 210.26 273.56 210.26 274.21 210.26C274.49 210.26 274.71 210.48 274.71 210.76C274.71 210.83 274.71 211.42 274.71 211.49C274.71 212.68 275.68 213.67 276.88 213.67C276.88 213.67 276.88 213.67 276.88 213.67C278.96 213.67 280.64 215.35 280.64 217.43C280.64 219.85 280.64 239.2 280.64 241.62C280.63 243.24 279.32 244.55 277.7 244.55C274.99 244.55 265.54 244.55 264.19 244.55ZM268.19 211.49C268.19 213.23 266.79 214.64 265.02 214.66C263.5 214.66 262.25 215.91 262.25 217.43C262.25 219.85 262.25 239.2 262.25 241.62C262.25 242.69 263.12 243.56 264.19 243.56C265.54 243.56 276.34 243.56 277.7 243.56C278.76 243.56 279.64 242.69 279.64 241.62C279.64 239.2 279.64 219.85 279.64 217.43C279.64 215.91 278.39 214.66 276.86 214.66C275.12 214.66 273.72 213.25 273.7 211.49C273.7 211.48 273.7 211.4 273.7 211.25L268.19 211.25C268.19 211.4 268.19 211.48 268.19 211.49Z"
              id="aPkpchsRZ"></path>
        <path d="M268.41 202.82C268.13 202.82 267.91 202.6 267.91 202.33C267.91 201.78 267.91 197.43 267.91 196.88C267.93 195.22 269.28 193.87 270.96 193.89C272.61 193.91 273.93 195.24 273.95 196.88C273.95 197.42 273.95 201.76 273.95 202.31C273.95 202.58 273.74 202.82 273.46 202.82C272.45 202.82 268.91 202.82 268.41 202.82ZM268.92 201.83L272.98 201.83C272.98 198.86 272.98 197.21 272.98 196.88C272.96 195.77 272.05 194.86 270.94 194.88C269.84 194.9 268.94 195.79 268.94 196.88C268.94 197.21 268.94 198.86 268.94 201.83L268.92 201.83Z"
              id="h4q6zvrWA8"></path>
        <path d="M261.76 240.59C261.48 240.59 261.26 240.37 261.26 240.1C261.26 237.81 261.26 219.52 261.26 217.23C261.26 216.95 261.48 216.74 261.76 216.74C263.59 216.74 278.29 216.74 280.13 216.74C280.41 216.74 280.63 216.95 280.63 217.23C280.63 219.52 280.63 237.81 280.63 240.1C280.63 240.37 280.41 240.59 280.13 240.59C276.46 240.59 263.59 240.59 261.76 240.59ZM279.64 239.6L279.64 217.73L262.25 217.73L262.25 239.6L279.64 239.6Z"
              id="cHdo10Opa"></path>
        <path d="M261.76 224.5C261.48 224.5 261.26 224.28 261.26 224C261.26 223.33 261.26 217.91 261.26 217.23C261.26 216.95 261.48 216.74 261.76 216.74C263.59 216.74 278.29 216.74 280.13 216.74C280.41 216.74 280.63 216.95 280.63 217.23C280.63 217.91 280.63 223.33 280.63 224C280.63 224.26 280.41 224.5 280.13 224.5C276.46 224.5 263.59 224.5 261.76 224.5ZM279.64 223.51L279.64 217.73L262.25 217.73L262.25 223.51L279.64 223.51Z"
              id="a3sQt027fz"></path>
        <path d="M270.49 238.18C270.11 238.18 269.82 237.88 269.82 237.5C269.82 237.46 269.82 237.42 269.84 237.39C269.85 237.32 269.94 236.76 269.95 236.69C269.5 236.97 269.02 237.17 268.51 237.27C268.37 237.31 268.25 237.35 268.11 237.39C268.09 237.39 268.09 237.4 268.07 237.4C267.72 237.5 267.34 237.31 267.24 236.95C267.18 236.75 267.22 236.53 267.34 236.36C267.48 236.18 267.58 236.04 267.68 235.9C267.72 235.84 267.78 235.76 267.82 235.7C267.16 235.62 266.53 235.46 265.92 235.25C265.66 235.17 265.42 235.09 265.2 235.03C265.2 235.03 265.18 235.03 265.18 235.03C264.83 234.91 264.63 234.53 264.75 234.2C264.83 233.98 265 233.8 265.22 233.74C265.22 233.74 265.24 233.74 265.24 233.74C265.48 233.7 265.74 233.64 265.99 233.56C266.43 233.45 266.87 233.35 267.32 233.29C266.55 232.59 265.86 231.8 265.28 230.93C265.06 230.63 264.87 230.34 264.67 230.1C264.67 230.1 264.65 230.08 264.65 230.08C264.43 229.78 264.49 229.37 264.79 229.15C264.98 228.99 265.26 228.97 265.5 229.09C265.52 229.09 265.52 229.11 265.54 229.11C265.76 229.25 266.03 229.39 266.35 229.55C267.38 230.02 268.35 230.63 269.2 231.37C269.1 230.36 269.2 229.35 269.52 228.4C269.6 228.16 270.21 226.22 270.29 225.98C270.41 225.63 270.79 225.45 271.12 225.55C271.32 225.61 271.48 225.76 271.56 225.98C271.63 226.22 272.25 228.16 272.33 228.4C272.65 229.35 272.75 230.36 272.65 231.37C273.5 230.63 274.47 230 275.5 229.55C275.81 229.39 276.09 229.25 276.31 229.11C276.33 229.11 276.33 229.09 276.35 229.09C276.69 228.91 277.08 229.05 277.26 229.37C277.38 229.59 277.36 229.86 277.2 230.08C277.2 230.08 277.18 230.1 277.18 230.1C276.98 230.34 276.78 230.61 276.59 230.91C276.01 231.78 275.32 232.59 274.55 233.29C274.98 233.35 275.42 233.45 275.85 233.56C276.11 233.62 276.37 233.7 276.61 233.74C276.61 233.74 276.63 233.74 276.63 233.74C276.98 233.82 277.2 234.18 277.12 234.55C277.06 234.79 276.9 234.97 276.67 235.03C276.67 235.03 276.65 235.03 276.65 235.03C276.41 235.09 276.17 235.17 275.91 235.27C275.3 235.5 274.67 235.64 274.03 235.72C274.07 235.78 274.13 235.86 274.17 235.92C274.27 236.06 274.37 236.22 274.49 236.36C274.71 236.65 274.67 237.07 274.37 237.29C274.19 237.42 273.97 237.46 273.77 237.4C273.76 237.4 273.76 237.4 273.74 237.39C273.62 237.35 273.48 237.31 273.36 237.27C272.84 237.15 272.35 236.95 271.91 236.69C271.93 236.76 272.02 237.32 272.03 237.39C272.09 237.76 271.85 238.1 271.48 238.18C271.48 238.18 271.44 238.18 271.4 238.18C271.4 238.18 271.4 238.18 271.4 238.18C270.85 238.18 270.55 238.18 270.49 238.18ZM271.02 237.19L270.94 236.75L270.86 237.19L271.02 237.19ZM271.85 235.29C272.19 235.72 272.67 236.04 273.18 236.18C273.02 235.96 272.82 235.76 272.59 235.6C272.37 235.45 272.31 235.13 272.47 234.91C272.57 234.77 272.75 234.69 272.92 234.71C273.72 234.79 274.53 234.69 275.28 234.42C274.55 234.2 273.76 234.16 273 234.3C272.73 234.34 272.47 234.16 272.43 233.9C272.39 233.7 272.49 233.49 272.67 233.39C274.13 232.55 274.94 231.51 275.58 230.59C274.51 231.13 273.18 231.9 272.09 233.47C271.93 233.68 271.64 233.74 271.4 233.58C271.2 233.45 271.14 233.21 271.22 232.99C271.78 231.62 271.81 230.1 271.36 228.69C271.33 228.6 271.17 228.11 270.88 227.23C270.6 228.11 270.44 228.6 270.41 228.69C269.95 230.1 270.01 231.62 270.55 232.99C270.65 233.25 270.53 233.52 270.27 233.62C270.05 233.7 269.82 233.64 269.68 233.45C268.59 231.88 267.26 231.11 266.19 230.58C266.85 231.51 267.64 232.52 269.1 233.37C269.34 233.5 269.42 233.8 269.28 234.04C269.18 234.22 268.96 234.32 268.77 234.28C268.01 234.16 267.22 234.2 266.49 234.4C267.24 234.67 268.05 234.77 268.85 234.69C269.12 234.65 269.36 234.85 269.4 235.13C269.42 235.31 269.34 235.48 269.2 235.58C268.98 235.74 268.79 235.94 268.61 236.16C269.12 236 269.6 235.68 269.93 235.27C270.15 235.01 270.53 234.95 270.79 235.17C270.81 235.19 270.83 235.19 270.84 235.21C271.06 235.13 271.22 235.05 271.38 235.05C271.38 235.05 271.38 235.05 271.38 235.05C271.62 235.1 271.78 235.18 271.85 235.29ZM276.82 229.78L276.82 229.78L276.82 229.78Z"
              id="f1sQWVPhcc"></path>
        <path d="M267.08 222.26C266.81 222.26 266.59 222.04 266.59 221.77C266.59 221.49 266.81 221.27 267.08 221.27C267.67 221.27 272.39 221.27 272.98 221.27C273.26 221.27 273.48 221.49 273.48 221.77C273.48 222.04 273.26 222.26 272.98 222.26C272.98 222.26 272.98 222.26 272.98 222.26C269.44 222.26 267.48 222.26 267.08 222.26Z"
              id="c15VneTIBi"></path>
        <path d="M267.08 220.06C266.81 220.06 266.59 219.85 266.59 219.57C266.59 219.29 266.81 219.07 267.08 219.07C267.67 219.07 272.39 219.07 272.98 219.07C273.26 219.07 273.48 219.29 273.48 219.57C273.48 219.85 273.26 220.06 272.98 220.06C272.98 220.06 272.98 220.06 272.98 220.06C269.44 220.06 267.48 220.06 267.08 220.06Z"
              id="b2bc3JwJqJ"></path>
        <path d="M274.43 222.18C274.43 222.14 274.43 222.12 274.45 222.08C274.45 222.04 274.47 222.02 274.47 221.98C274.49 221.94 274.49 221.92 274.51 221.9C274.53 221.88 274.55 221.84 274.57 221.82C274.76 221.65 275.06 221.65 275.26 221.82C275.28 221.84 275.3 221.86 275.32 221.9C275.34 221.92 275.36 221.96 275.36 221.98C275.38 222.02 275.38 222.04 275.38 222.08C275.38 222.12 275.38 222.14 275.4 222.18C275.42 222.46 275.2 222.68 274.92 222.68C274.92 222.68 274.92 222.68 274.92 222.68C274.59 222.53 274.43 222.37 274.43 222.18Z"
              id="dJ8oJbeb0"></path>
        <path d="M274.43 220.7C274.43 220.53 274.43 219.2 274.43 219.03C274.43 218.76 274.65 218.54 274.92 218.54C275.2 218.54 275.42 218.76 275.42 219.03C275.42 219.2 275.42 220.53 275.42 220.7C275.42 220.97 275.2 221.19 274.92 221.19C274.65 221.19 274.43 220.97 274.43 220.7Z"
              id="bhJeGN2R"></path>
        <path d="M359.66 213.7C359.25 212.2 359.03 211.37 358.98 211.2C358.49 209.39 359.4 207.49 361.12 206.73C361.28 206.66 362.06 206.31 363.48 205.69C363.89 207.18 364.11 208.02 364.15 208.18C364.64 209.99 363.74 211.89 362.02 212.65C361.71 212.79 360.92 213.14 359.66 213.7Z"
              id="apPT1TdTn"></path>
        <path d="M352.05 235.77C345.05 235.77 339.37 230.1 339.37 223.09C342.29 223.09 365.62 223.09 368.54 223.09C368.54 230.1 362.86 235.77 355.86 235.77C355.1 235.77 352.43 235.77 352.05 235.77Z"
              id="j6BFWQ3pQV"></path>
        <path d="M355.86 212.95C361.46 212.95 366 217.49 366 223.09C363.59 223.09 344.32 223.09 341.91 223.09C341.91 217.49 346.45 212.95 352.05 212.95C352.81 212.95 355.48 212.95 355.86 212.95Z"
              id="aJd1qs1eg"></path>
        <path d="M348.25 216.18L349.52 216.18L349.52 217.45L348.25 217.45L348.25 216.18Z" id="es2bwQjBF"></path>
        <path d="M352.05 216.18L353.32 216.18L353.32 217.45L352.05 217.45L352.05 216.18Z" id="b2EtcR4v2s"></path>
        <path d="M350.15 218.66L351.42 218.66L351.42 219.92L350.15 219.92L350.15 218.66Z" id="f5ZWNg31y"></path>
        <path d="M360.93 219.92L362.2 219.92L362.2 221.19L360.93 221.19L360.93 219.92Z" id="d7Ga8sQIQO"></path>
        <path d="M359.03 218.02L360.29 218.02L360.29 219.29L359.03 219.29L359.03 218.02Z" id="bUzGxIhjX"></path>
        <path d="M359.68 232.36C359.61 232.07 359.75 231.78 360.02 231.65C360.21 231.55 360.4 231.45 360.59 231.35C360.8 231.22 361 231.09 361.21 230.96C361.5 230.76 361.89 230.84 362.09 231.13C362.29 231.42 362.21 231.81 361.92 232.01C361.69 232.16 361.46 232.31 361.22 232.45C361.01 232.57 360.79 232.68 360.57 232.79C360.49 232.83 360.39 232.85 360.29 232.85C360 232.85 359.74 232.65 359.68 232.36Z"
              id="f6z7czfYZH"></path>
        <path d="M362.64 230.32C362.54 230.08 362.59 229.81 362.76 229.63C363.21 229.16 363.61 228.64 363.95 228.09C364.56 227.1 364.98 226.01 365.2 224.88C365.26 224.53 365.6 224.31 365.94 224.37C366.28 224.44 366.51 224.77 366.44 225.11C366.2 226.4 365.72 227.64 365.03 228.75C364.64 229.38 364.19 229.97 363.68 230.5C363.56 230.63 363.4 230.7 363.22 230.7C362.97 230.7 362.74 230.55 362.64 230.32Z"
              id="d40C4BNhfk"></path>
        <path d="M347.52 227.31C344.83 225.97 341.84 225.35 338.84 225.52C338.72 225.52 338.12 225.56 337.04 225.62C337.44 226.34 337.66 226.74 337.71 226.82C339.39 229.87 341.97 232.33 345.08 233.89C348.42 235.56 352.2 236.1 355.87 235.43C355.9 235.43 356.1 235.39 356.46 235.32C356.13 234.79 355.95 234.49 355.91 234.43C354.23 231.68 351.8 229.45 348.92 228.01C348.64 227.87 347.66 227.38 347.52 227.31Z"
              id="e4cMr5SAVG"></path>
        <path d="M343.05 202.91C342.83 203.35 342.7 203.6 342.68 203.65C342.1 204.8 341.1 205.67 339.88 206.08C341.1 206.48 342.1 207.36 342.68 208.51C342.7 208.55 342.83 208.8 343.05 209.25C343.27 208.8 343.4 208.55 343.42 208.51C343.99 207.36 345 206.48 346.22 206.08C345 205.67 343.99 204.8 343.42 203.65C343.37 203.55 343.25 203.3 343.05 202.91Z"
              id="bMN9w4coP"></path>
        <path d="M343.05 202.91C342.83 203.35 342.7 203.6 342.68 203.65C342.1 204.8 341.1 205.67 339.88 206.08C341.1 206.48 342.1 207.36 342.68 208.51C342.7 208.55 342.83 208.8 343.05 209.25C343.27 208.8 343.4 208.55 343.42 208.51C343.99 207.36 345 206.48 346.22 206.08C345 205.67 343.99 204.8 343.42 203.65C343.37 203.55 343.25 203.3 343.05 202.91Z"
              id="b1OKdrFUIS"></path>
        <path d="M338.61 209.88C338.43 210.24 338.33 210.44 338.31 210.48C337.85 211.39 337.05 212.09 336.08 212.42C337.05 212.74 337.85 213.44 338.31 214.36C338.33 214.4 338.43 214.6 338.61 214.95C338.79 214.6 338.89 214.4 338.91 214.36C339.37 213.44 340.17 212.74 341.15 212.42C340.17 212.09 339.37 211.39 338.91 210.48C338.87 210.4 338.77 210.2 338.61 209.88Z"
              id="c3FzMP75f"></path>
        <path d="M359.67 213.69C361.07 214.36 361.84 214.74 362 214.81C363.69 215.63 365.72 215.1 366.79 213.55C366.89 213.41 367.37 212.7 368.26 211.43C366.86 210.75 366.09 210.38 365.93 210.3C364.24 209.48 362.21 210.02 361.14 211.56C360.95 211.85 360.46 212.55 359.67 213.69Z"
              id="aruKYkHTS"></path>
        <path d="M359.67 213.69C358.27 213.03 357.49 212.66 357.33 212.59C355.64 211.79 354.78 209.87 355.31 208.07C355.35 207.91 355.6 207.08 356.03 205.59C357.44 206.25 358.21 206.62 358.37 206.69C360.07 207.49 360.93 209.41 360.4 211.21C360.3 211.54 360.06 212.37 359.67 213.69Z"
              id="d1cNVEgLYq"></path>
        <path d="M344.75 232.73C341.75 232.9 338.84 233.84 336.32 235.47C336.22 235.54 335.72 235.86 334.81 236.45C335.51 236.88 335.9 237.12 335.98 237.17C338.96 238.98 342.41 239.85 345.89 239.65C349.61 239.45 353.17 238.05 356.02 235.66C356.05 235.63 356.21 235.5 356.49 235.26C355.94 234.96 355.63 234.79 355.57 234.76C352.74 233.2 349.53 232.47 346.31 232.65C346 232.66 344.9 232.72 344.75 232.73Z"
              id="bmpARKOMQ"></path>
        <path d="M348.25 216.18L349.52 216.18L349.52 217.45L348.25 217.45L348.25 216.18Z" id="f2xfTa2bjA"></path>
        <path d="M352.05 216.18L353.32 216.18L353.32 217.45L352.05 217.45L352.05 216.18Z" id="a1NWzspBRl"></path>
        <path d="M350.15 218.66L351.42 218.66L351.42 219.92L350.15 219.92L350.15 218.66Z" id="fS7dhYSwW"></path>
        <path d="M360.93 219.92L362.2 219.92L362.2 221.19L360.93 221.19L360.93 219.92Z" id="a158JvEj6U"></path>
        <path d="M359.03 218.02L360.29 218.02L360.29 219.29L359.03 219.29L359.03 218.02Z" id="d2tXhRSAFA"></path>
        <path d="M360.57 232.79C361.04 232.56 361.49 232.3 361.92 232.01C362.21 231.81 362.28 231.41 362.09 231.12C361.89 230.84 361.49 230.76 361.2 230.96C360.83 231.22 360.43 231.45 360.02 231.65C359.75 231.78 359.61 232.07 359.67 232.36C359.74 232.65 360 232.85 360.29 232.85C360.39 232.85 360.48 232.83 360.57 232.79Z"
              id="ei6Ix6Z5d"></path>
        <path d="M363.68 230.5C365.1 229.01 366.06 227.14 366.44 225.11C366.51 224.77 366.28 224.44 365.94 224.37C365.6 224.31 365.26 224.53 365.2 224.88C364.86 226.66 364.01 228.31 362.76 229.63C362.59 229.82 362.54 230.09 362.64 230.32C362.74 230.55 362.97 230.7 363.22 230.7C363.4 230.7 363.56 230.63 363.68 230.5Z"
              id="azMUmG9nX"></path>
        <path d="M335.65 237.71C338.45 239.41 341.66 240.32 344.94 240.31C345.27 240.31 345.6 240.31 345.93 240.29C349.64 240.07 353.19 238.71 356.1 236.4C363.35 236.26 369.16 230.35 369.17 223.09C369.17 222.74 368.89 222.46 368.54 222.46C368.34 222.46 366.8 222.46 366.6 222.46C366.46 219.99 365.47 217.65 363.8 215.83C365.21 215.79 366.51 215.08 367.31 213.92C367.46 213.7 368.63 212 368.78 211.79C368.88 211.64 368.92 211.45 368.87 211.27C368.82 211.09 368.7 210.94 368.54 210.86C368.3 210.75 366.44 209.84 366.21 209.73C365.8 209.53 365.36 209.4 364.91 209.33C364.93 208.89 364.88 208.45 364.76 208.02C364.7 207.77 364.16 205.77 364.09 205.52C364.04 205.34 363.92 205.19 363.75 205.11C363.58 205.03 363.39 205.03 363.22 205.11C362.98 205.21 361.1 206.05 360.86 206.15C360.46 206.33 360.08 206.57 359.75 206.86C359.42 206.56 359.05 206.31 358.64 206.12C358.41 206.01 356.53 205.13 356.3 205.02C356.13 204.94 355.94 204.94 355.77 205.02C355.6 205.09 355.47 205.24 355.42 205.42C355.35 205.66 354.77 207.65 354.69 207.89C354.22 209.47 354.67 211.17 355.84 212.32C355.46 212.32 352.43 212.32 352.05 212.32C346.35 212.32 341.64 216.77 341.31 222.46C341.11 222.46 339.57 222.46 339.37 222.46C339.02 222.46 338.74 222.74 338.74 223.09C338.74 223.69 338.79 224.29 338.87 224.88C338.85 224.88 338.83 224.88 338.8 224.88C338.62 224.89 337.18 224.97 337 224.98C336.79 224.99 336.59 225.12 336.48 225.31C336.38 225.5 336.38 225.73 336.48 225.92C336.55 226.04 337.08 227.01 337.15 227.13C338.32 229.21 339.88 231.04 341.76 232.52C339.7 232.98 337.75 233.8 335.98 234.94C335.83 235.03 334.61 235.82 334.46 235.92C334.28 236.04 334.17 236.24 334.17 236.46C334.17 236.68 334.29 236.88 334.48 237C334.48 237 335.54 237.64 335.65 237.71ZM367.31 211.68C366.69 212.59 366.34 213.09 366.27 213.2C365.38 214.49 363.68 214.94 362.28 214.24C362.15 214.18 361.15 213.7 361.02 213.64C360.89 213.57 360.75 213.51 360.62 213.44C360.72 213.29 361.56 212.07 361.66 211.92C362.55 210.63 364.25 210.18 365.65 210.87C365.88 210.98 366.43 211.25 367.31 211.68ZM363.06 206.57C363.35 207.64 363.51 208.23 363.54 208.35C363.62 208.67 363.66 209 363.64 209.33C362.71 209.46 361.84 209.89 361.17 210.55C361.26 209.61 361.05 208.66 360.56 207.85C360.8 207.63 361.08 207.45 361.38 207.31C361.6 207.21 362.16 206.96 363.06 206.57ZM356.43 206.48C357.43 206.95 357.99 207.22 358.1 207.27C359.52 207.93 360.24 209.53 359.79 211.03C359.76 211.15 359.59 211.74 359.27 212.8C358.27 212.33 357.72 212.07 357.6 212.01C356.18 211.35 355.46 209.75 355.91 208.25C355.98 208.02 356.15 207.43 356.43 206.48ZM355.86 213.58C357.16 213.58 358.44 213.85 359.63 214.37C359.71 214.41 360.29 214.69 360.37 214.73C363.24 216.28 365.12 219.2 365.35 222.46C363.07 222.46 344.84 222.46 342.56 222.46C342.9 217.47 347.05 213.59 352.05 213.58C352.81 213.58 355.48 213.58 355.86 213.58ZM367.89 223.73C367.57 229.65 362.99 234.46 357.09 235.08C357.05 234.95 356.97 234.84 356.86 234.76C356.82 234.69 356.49 234.17 356.45 234.1C354.71 231.25 352.19 228.94 349.2 227.44C349.06 227.37 347.93 226.81 347.79 226.74C345.41 225.56 342.8 224.91 340.14 224.86C340.08 224.49 340.04 224.11 340.02 223.73C345.59 223.73 362.31 223.73 367.89 223.73ZM338.08 226.2C338.56 226.17 338.82 226.15 338.87 226.15C339.11 226.14 339.36 226.13 339.61 226.13C342.26 226.1 344.87 226.7 347.23 227.88C347.37 227.95 348.5 228.51 348.64 228.58C350.97 229.75 352.99 231.45 354.54 233.55C351.95 232.39 349.12 231.86 346.28 232.02C346.12 232.02 344.87 232.09 344.71 232.1C344.3 232.13 343.89 232.17 343.48 232.22C341.32 230.75 339.53 228.8 338.26 226.52C338.26 226.52 338.2 226.41 338.08 226.2ZM336.67 236C339.1 234.43 341.89 233.52 344.78 233.36C344.94 233.36 346.19 233.29 346.35 233.28C349.45 233.11 352.54 233.81 355.26 235.31C355.27 235.32 355.36 235.36 355.37 235.37C352.66 237.55 349.33 238.82 345.86 239.02C342.51 239.21 339.18 238.37 336.31 236.62C336.29 236.61 336.19 236.55 336 236.43C336.36 236.2 336.58 236.06 336.67 236Z"
              id="c3n23HVXFO"></path>
        <path d="M342.48 209.53C342.59 209.75 342.81 209.88 343.05 209.88C343.29 209.88 343.51 209.75 343.62 209.53C343.65 209.46 343.95 208.86 343.99 208.79C344.49 207.79 345.36 207.03 346.42 206.68C346.68 206.59 346.86 206.35 346.86 206.08C346.86 205.8 346.68 205.56 346.42 205.47C345.36 205.12 344.49 204.36 343.99 203.36C343.95 203.29 343.66 202.7 343.62 202.62C343.51 202.41 343.29 202.27 343.05 202.27C342.81 202.27 342.59 202.41 342.49 202.62C342.45 202.7 342.15 203.29 342.11 203.37C341.62 204.37 340.74 205.13 339.68 205.48C339.42 205.56 339.25 205.81 339.25 206.08C339.25 206.35 339.42 206.6 339.68 206.68C340.74 207.03 341.62 207.79 342.11 208.79C342.19 208.94 342.41 209.38 342.48 209.53ZM343.05 204.29C343.48 205.01 344.06 205.62 344.77 206.08C344.06 206.53 343.48 207.14 343.05 207.86C342.62 207.14 342.04 206.53 341.33 206.08C342.04 205.62 342.62 205.01 343.05 204.29Z"
              id="b5PKaGdyB"></path>
        <path d="M337.75 214.64C337.78 214.7 338.01 215.18 338.04 215.24C338.15 215.45 338.37 215.59 338.61 215.59C338.85 215.59 339.07 215.45 339.18 215.24C339.21 215.18 339.45 214.7 339.48 214.64C339.86 213.87 340.53 213.29 341.35 213.02C341.61 212.93 341.78 212.69 341.78 212.42C341.78 212.14 341.61 211.9 341.35 211.81C340.53 211.54 339.86 210.96 339.48 210.19C339.45 210.13 339.21 209.66 339.18 209.6C339.07 209.38 338.85 209.25 338.61 209.25C338.37 209.25 338.15 209.38 338.04 209.6C338.01 209.66 337.78 210.13 337.75 210.19C337.37 210.96 336.69 211.54 335.87 211.81C335.61 211.9 335.44 212.14 335.44 212.42C335.44 212.69 335.61 212.93 335.87 213.02C336.69 213.29 337.36 213.87 337.75 214.64ZM339.76 212.42C339.31 212.74 338.92 213.14 338.61 213.61C338.31 213.14 337.92 212.74 337.46 212.42C337.92 212.1 338.31 211.69 338.61 211.23C338.92 211.69 339.31 212.1 339.76 212.42Z"
              id="ac8qOE9HE"></path>
        <path d="M410.8 216.33L389.08 236.23L387.89 242.17L393.83 240.98L413.74 219.27L410.8 216.33Z"
              id="a4cMz4TEJt"></path>
        <path d="M385.51 243.96C385.51 243.8 385.57 243.65 385.68 243.54C385.92 243.3 387.82 241.4 388.06 241.16C388.3 240.93 388.68 240.94 388.9 241.17C389.13 241.4 389.13 241.77 388.9 242C388.67 242.24 386.76 244.14 386.52 244.38C386.41 244.49 386.26 244.55 386.1 244.55C385.78 244.55 385.51 244.29 385.51 243.96Z"
              id="b2mo6tNi0N"></path>
        <path d="M392.22 239.62C392.05 239.44 390.62 238.02 390.44 237.84C390.21 237.6 390.22 237.23 390.46 237C390.69 236.77 391.05 236.77 391.28 237C391.46 237.18 392.89 238.6 393.07 238.78C393.3 239.01 393.3 239.39 393.07 239.62C392.95 239.73 392.8 239.8 392.65 239.8C392.49 239.8 392.34 239.73 392.22 239.62Z"
              id="b3yjc7E2ir"></path>
        <path d="M393.24 234.44L394.43 234.44L394.43 235.63L393.24 235.63L393.24 234.44Z" id="cQ0RsjZox"></path>
        <path d="M395.62 232.66L396.81 232.66L396.81 233.85L395.62 233.85L395.62 232.66Z" id="aZHkBbswV"></path>
        <path d="M410.8 216.33L413.74 219.27C417.49 215.18 419.58 212.9 420 212.45C420.66 211.8 420.68 210.74 420.04 210.08C419.4 209.41 418.34 209.39 417.67 210.03C417.65 210.05 417.63 210.06 417.62 210.08C416.71 210.91 414.43 213 410.8 216.33Z"
              id="d95i4HYeM"></path>
        <path d="M227.66 142.07L450.18 142.07L450.18 282.61L227.66 282.61L227.66 142.07Z" id="b1mUTBpH0"></path>
        <path d="M450.18 182.61L450.18 142.07L227.66 142.07L227.66 182.61L450.18 182.61Z" id="daITAgzvn"></path>
    </defs>
    <g>
        <g>
            <g>
                <g class="rise">
                    <use xlink:href="#b1WUDWT72q" opacity="1" fill="#b4dd7f" fill-opacity="1"></use>
                    <g>
                        <use xlink:href="#b1WUDWT72q" opacity="1" fill-opacity="0" stroke="#000000" stroke-width="1"
                             stroke-opacity="0"></use>
                    </g>
                </g>
                <g>
                    <use xlink:href="#c3RH7S6qh" opacity="1" fill="#000000" fill-opacity="1"></use>
                    <g>
                        <use xlink:href="#c3RH7S6qh" opacity="1" fill-opacity="0" stroke="#000000" stroke-width="1"
                             stroke-opacity="0"></use>
                    </g>
                </g>
                <g>
                    <use xlink:href="#g3osEishVc" opacity="1" fill="#000000" fill-opacity="1"></use>
                    <g>
                        <use xlink:href="#g3osEishVc" opacity="1" fill-opacity="0" stroke="#000000" stroke-width="1"
                             stroke-opacity="0"></use>
                    </g>
                </g>
                <g>
                    <use xlink:href="#d1LSMOjsme" opacity="1" fill="#000000" fill-opacity="1"></use>
                    <g>
                        <use xlink:href="#d1LSMOjsme" opacity="1" fill-opacity="0" stroke="#000000" stroke-width="1"
                             stroke-opacity="0"></use>
                    </g>
                </g>
                <g>
                    <use xlink:href="#b1YxdUQxxg" opacity="1" fill="#000000" fill-opacity="1"></use>
                    <g>
                        <use xlink:href="#b1YxdUQxxg" opacity="1" fill-opacity="0" stroke="#000000" stroke-width="1"
                             stroke-opacity="0"></use>
                    </g>
                </g>
                <g>
                    <use xlink:href="#b2wR4wrctY" opacity="1" fill="#000000" fill-opacity="1"></use>
                    <g>
                        <use xlink:href="#b2wR4wrctY" opacity="1" fill-opacity="0" stroke="#000000" stroke-width="1"
                             stroke-opacity="0"></use>
                    </g>
                </g>
                <g>
                    <use xlink:href="#ccOjiqhEL" opacity="1" fill="#000000" fill-opacity="1"></use>
                    <g>
                        <use xlink:href="#ccOjiqhEL" opacity="1" fill-opacity="0" stroke="#000000" stroke-width="1"
                             stroke-opacity="0"></use>
                    </g>
                </g>
            </g>
            <g class="rise">
                <g>
                    <use xlink:href="#a2M9WeUFBv" opacity="1" fill="#e9e9ea" fill-opacity="1"></use>
                    <g>
                        <use xlink:href="#a2M9WeUFBv" opacity="1" fill-opacity="0" stroke="#000000" stroke-width="1"
                             stroke-opacity="0"></use>
                    </g>
                </g>
                <g>
                    <use xlink:href="#c16zvyGF6i" opacity="1" fill="#f45d64" fill-opacity="1"></use>
                    <g>
                        <use xlink:href="#c16zvyGF6i" opacity="1" fill-opacity="0" stroke="#000000" stroke-width="1"
                             stroke-opacity="0"></use>
                    </g>
                </g>
                <g>
                    <use xlink:href="#b2JKUAXC5" opacity="1" fill="#ffcd29" fill-opacity="1"></use>
                    <g>
                        <use xlink:href="#b2JKUAXC5" opacity="1" fill-opacity="0" stroke="#000000" stroke-width="1"
                             stroke-opacity="0"></use>
                    </g>
                </g>
                <g>
                    <use xlink:href="#c3aEP1jERv" opacity="1" fill="#939190" fill-opacity="1"></use>
                    <g>
                        <use xlink:href="#c3aEP1jERv" opacity="1" fill-opacity="0" stroke="#000000" stroke-width="1"
                             stroke-opacity="0"></use>
                    </g>
                </g>
                <g>
                    <use xlink:href="#ekOAMJYaO" opacity="1" fill="#6d6c6b" fill-opacity="1"></use>
                    <g>
                        <use xlink:href="#ekOAMJYaO" opacity="1" fill-opacity="0" stroke="#000000" stroke-width="1"
                             stroke-opacity="0"></use>
                    </g>
                </g>
                <g>
                    <use xlink:href="#dKvcz2dkt" opacity="1" fill="#6d6c6b" fill-opacity="1"></use>
                    <g>
                        <use xlink:href="#dKvcz2dkt" opacity="1" fill-opacity="0" stroke="#000000" stroke-width="1"
                             stroke-opacity="0"></use>
                    </g>
                </g>
                <g>
                    <use xlink:href="#a2ohIjpiby" opacity="1" fill="#6d6c6b" fill-opacity="1"></use>
                    <g>
                        <use xlink:href="#a2ohIjpiby" opacity="1" fill-opacity="0" stroke="#000000" stroke-width="1"
                             stroke-opacity="0"></use>
                    </g>
                </g>
                <g>
                    <use xlink:href="#k2EvLaU0OD" opacity="1" fill="#e9e9ea" fill-opacity="1"></use>
                    <g>
                        <use xlink:href="#k2EvLaU0OD" opacity="1" fill-opacity="0" stroke="#000000" stroke-width="1"
                             stroke-opacity="0"></use>
                    </g>
                </g>
                <g>
                    <use xlink:href="#a6tRoQyUL" opacity="1" fill="#6dcc6d" fill-opacity="1"></use>
                    <g>
                        <use xlink:href="#a6tRoQyUL" opacity="1" fill-opacity="0" stroke="#000000" stroke-width="1"
                             stroke-opacity="0"></use>
                    </g>
                </g>
                <g>
                    <use xlink:href="#ayqKppS1J" opacity="1" fill="#ffcd29" fill-opacity="1"></use>
                    <g>
                        <use xlink:href="#ayqKppS1J" opacity="1" fill-opacity="0" stroke="#000000" stroke-width="1"
                             stroke-opacity="0"></use>
                    </g>
                </g>
                <g>
                    <use xlink:href="#d4w3QXbXQ" opacity="1" fill="#60bae2" fill-opacity="1"></use>
                    <g>
                        <use xlink:href="#d4w3QXbXQ" opacity="1" fill-opacity="0" stroke="#000000" stroke-width="1"
                             stroke-opacity="0"></use>
                    </g>
                </g>
                <g>
                    <use xlink:href="#b18UtfinNL" opacity="1" fill="#f45d64" fill-opacity="1"></use>
                    <g>
                        <use xlink:href="#b18UtfinNL" opacity="1" fill-opacity="0" stroke="#000000" stroke-width="1"
                             stroke-opacity="0"></use>
                    </g>
                </g>
                <g>
                    <use xlink:href="#b6UWbpcD" opacity="1" fill="#231f20" fill-opacity="1"></use>
                    <g>
                        <use xlink:href="#b6UWbpcD" opacity="1" fill-opacity="0" stroke="#000000" stroke-width="1"
                             stroke-opacity="0"></use>
                    </g>
                </g>
                <g>
                    <use xlink:href="#c1hzbYyTlW" opacity="1" fill="#231f20" fill-opacity="1"></use>
                    <g>
                        <use xlink:href="#c1hzbYyTlW" opacity="1" fill-opacity="0" stroke="#000000" stroke-width="1"
                             stroke-opacity="0"></use>
                    </g>
                </g>
                <g>
                    <use xlink:href="#b1of3hUiCP" opacity="1" fill="#231f20" fill-opacity="1"></use>
                    <g>
                        <use xlink:href="#b1of3hUiCP" opacity="1" fill-opacity="0" stroke="#000000" stroke-width="1"
                             stroke-opacity="0"></use>
                    </g>
                </g>
                <g>
                    <use xlink:href="#aPkpchsRZ" opacity="1" fill="#231f20" fill-opacity="1"></use>
                    <g>
                        <use xlink:href="#aPkpchsRZ" opacity="1" fill-opacity="0" stroke="#000000" stroke-width="1"
                             stroke-opacity="0"></use>
                    </g>
                </g>
                <g>
                    <use xlink:href="#h4q6zvrWA8" opacity="1" fill="#231f20" fill-opacity="1"></use>
                    <g>
                        <use xlink:href="#h4q6zvrWA8" opacity="1" fill-opacity="0" stroke="#000000" stroke-width="1"
                             stroke-opacity="0"></use>
                    </g>
                </g>
                <g>
                    <use xlink:href="#cHdo10Opa" opacity="1" fill="#231f20" fill-opacity="1"></use>
                    <g>
                        <use xlink:href="#cHdo10Opa" opacity="1" fill-opacity="0" stroke="#000000" stroke-width="1"
                             stroke-opacity="0"></use>
                    </g>
                </g>
                <g>
                    <use xlink:href="#a3sQt027fz" opacity="1" fill="#231f20" fill-opacity="1"></use>
                    <g>
                        <use xlink:href="#a3sQt027fz" opacity="1" fill-opacity="0" stroke="#000000" stroke-width="1"
                             stroke-opacity="0"></use>
                    </g>
                </g>
                <g>
                    <use xlink:href="#f1sQWVPhcc" opacity="1" fill="#231f20" fill-opacity="1"></use>
                    <g>
                        <use xlink:href="#f1sQWVPhcc" opacity="1" fill-opacity="0" stroke="#000000" stroke-width="1"
                             stroke-opacity="0"></use>
                    </g>
                </g>
                <g>
                    <use xlink:href="#c15VneTIBi" opacity="1" fill="#231f20" fill-opacity="1"></use>
                    <g>
                        <use xlink:href="#c15VneTIBi" opacity="1" fill-opacity="0" stroke="#000000" stroke-width="1"
                             stroke-opacity="0"></use>
                    </g>
                </g>
                <g>
                    <use xlink:href="#b2bc3JwJqJ" opacity="1" fill="#231f20" fill-opacity="1"></use>
                    <g>
                        <use xlink:href="#b2bc3JwJqJ" opacity="1" fill-opacity="0" stroke="#000000" stroke-width="1"
                             stroke-opacity="0"></use>
                    </g>
                </g>
                <g>
                    <use xlink:href="#dJ8oJbeb0" opacity="1" fill="#231f20" fill-opacity="1"></use>
                    <g>
                        <use xlink:href="#dJ8oJbeb0" opacity="1" fill-opacity="0" stroke="#000000" stroke-width="1"
                             stroke-opacity="0"></use>
                    </g>
                </g>
                <g>
                    <use xlink:href="#bhJeGN2R" opacity="1" fill="#231f20" fill-opacity="1"></use>
                    <g>
                        <use xlink:href="#bhJeGN2R" opacity="1" fill-opacity="0" stroke="#000000" stroke-width="1"
                             stroke-opacity="0"></use>
                    </g>
                </g>
            </g>
            <g class="rise">
                <g>
                    <use xlink:href="#apPT1TdTn" opacity="1" fill="#f7ba61" fill-opacity="1"></use>
                    <g>
                        <use xlink:href="#apPT1TdTn" opacity="1" fill-opacity="0" stroke="#000000" stroke-width="1"
                             stroke-opacity="0"></use>
                    </g>
                </g>
                <g>
                    <use xlink:href="#j6BFWQ3pQV" opacity="1" fill="#8f563b" fill-opacity="1"></use>
                    <g>
                        <use xlink:href="#j6BFWQ3pQV" opacity="1" fill-opacity="0" stroke="#000000" stroke-width="1"
                             stroke-opacity="0"></use>
                    </g>
                </g>
                <g>
                    <use xlink:href="#aJd1qs1eg" opacity="1" fill="#ffb1b5" fill-opacity="1"></use>
                    <g>
                        <use xlink:href="#aJd1qs1eg" opacity="1" fill-opacity="0" stroke="#000000" stroke-width="1"
                             stroke-opacity="0"></use>
                    </g>
                </g>
                <g>
                    <use xlink:href="#es2bwQjBF" opacity="1" fill="#eea5a9" fill-opacity="1"></use>
                    <g>
                        <use xlink:href="#es2bwQjBF" opacity="1" fill-opacity="0" stroke="#000000" stroke-width="1"
                             stroke-opacity="0"></use>
                    </g>
                </g>
                <g>
                    <use xlink:href="#b2EtcR4v2s" opacity="1" fill="#eea5a9" fill-opacity="1"></use>
                    <g>
                        <use xlink:href="#b2EtcR4v2s" opacity="1" fill-opacity="0" stroke="#000000" stroke-width="1"
                             stroke-opacity="0"></use>
                    </g>
                </g>
                <g>
                    <use xlink:href="#f5ZWNg31y" opacity="1" fill="#eea5a9" fill-opacity="1"></use>
                    <g>
                        <use xlink:href="#f5ZWNg31y" opacity="1" fill-opacity="0" stroke="#000000" stroke-width="1"
                             stroke-opacity="0"></use>
                    </g>
                </g>
                <g>
                    <use xlink:href="#d7Ga8sQIQO" opacity="1" fill="#eea5a9" fill-opacity="1"></use>
                    <g>
                        <use xlink:href="#d7Ga8sQIQO" opacity="1" fill-opacity="0" stroke="#000000" stroke-width="1"
                             stroke-opacity="0"></use>
                    </g>
                </g>
                <g>
                    <use xlink:href="#bUzGxIhjX" opacity="1" fill="#eea5a9" fill-opacity="1"></use>
                    <g>
                        <use xlink:href="#bUzGxIhjX" opacity="1" fill-opacity="0" stroke="#000000" stroke-width="1"
                             stroke-opacity="0"></use>
                    </g>
                </g>
                <g>
                    <use xlink:href="#f6z7czfYZH" opacity="1" fill="#c17450" fill-opacity="1"></use>
                    <g>
                        <use xlink:href="#f6z7czfYZH" opacity="1" fill-opacity="0" stroke="#000000" stroke-width="1"
                             stroke-opacity="0"></use>
                    </g>
                </g>
                <g>
                    <use xlink:href="#d40C4BNhfk" opacity="1" fill="#c17450" fill-opacity="1"></use>
                    <g>
                        <use xlink:href="#d40C4BNhfk" opacity="1" fill-opacity="0" stroke="#000000" stroke-width="1"
                             stroke-opacity="0"></use>
                    </g>
                </g>
                <g>
                    <use xlink:href="#e4cMr5SAVG" opacity="1" fill="#6b9777" fill-opacity="1"></use>
                    <g>
                        <use xlink:href="#e4cMr5SAVG" opacity="1" fill-opacity="0" stroke="#000000" stroke-width="1"
                             stroke-opacity="0"></use>
                    </g>
                </g>
                <g>
                    <use xlink:href="#bMN9w4coP" opacity="1" fill="#fbedbf" fill-opacity="1"></use>
                    <g>
                        <use xlink:href="#bMN9w4coP" opacity="1" fill-opacity="0" stroke="#000000" stroke-width="1"
                             stroke-opacity="0"></use>
                    </g>
                </g>
                <g>
                    <use xlink:href="#b1OKdrFUIS" opacity="1" fill="#fbedbf" fill-opacity="1"></use>
                    <g>
                        <use xlink:href="#b1OKdrFUIS" opacity="1" fill-opacity="0" stroke="#000000" stroke-width="1"
                             stroke-opacity="0"></use>
                    </g>
                </g>
                <g>
                    <use xlink:href="#c3FzMP75f" opacity="1" fill="#fbedbf" fill-opacity="1"></use>
                    <g>
                        <use xlink:href="#c3FzMP75f" opacity="1" fill-opacity="0" stroke="#000000" stroke-width="1"
                             stroke-opacity="0"></use>
                    </g>
                </g>
                <g>
                    <use xlink:href="#aruKYkHTS" opacity="1" fill="#ebebeb" fill-opacity="1"></use>
                    <g>
                        <use xlink:href="#aruKYkHTS" opacity="1" fill-opacity="0" stroke="#000000" stroke-width="1"
                             stroke-opacity="0"></use>
                    </g>
                </g>
                <g>
                    <use xlink:href="#d1cNVEgLYq" opacity="1" fill="#ebebeb" fill-opacity="1"></use>
                    <g>
                        <use xlink:href="#d1cNVEgLYq" opacity="1" fill-opacity="0" stroke="#000000" stroke-width="1"
                             stroke-opacity="0"></use>
                    </g>
                </g>
                <g>
                    <use xlink:href="#bmpARKOMQ" opacity="1" fill="#aac16b" fill-opacity="1"></use>
                    <g>
                        <use xlink:href="#bmpARKOMQ" opacity="1" fill-opacity="0" stroke="#000000" stroke-width="1"
                             stroke-opacity="0"></use>
                    </g>
                </g>
                <g>
                    <use xlink:href="#f2xfTa2bjA" opacity="1" fill="#000000" fill-opacity="1"></use>
                    <g>
                        <use xlink:href="#f2xfTa2bjA" opacity="1" fill-opacity="0" stroke="#000000" stroke-width="1"
                             stroke-opacity="0"></use>
                    </g>
                </g>
                <g>
                    <use xlink:href="#a1NWzspBRl" opacity="1" fill="#000000" fill-opacity="1"></use>
                    <g>
                        <use xlink:href="#a1NWzspBRl" opacity="1" fill-opacity="0" stroke="#000000" stroke-width="1"
                             stroke-opacity="0"></use>
                    </g>
                </g>
                <g>
                    <use xlink:href="#fS7dhYSwW" opacity="1" fill="#000000" fill-opacity="1"></use>
                    <g>
                        <use xlink:href="#fS7dhYSwW" opacity="1" fill-opacity="0" stroke="#000000" stroke-width="1"
                             stroke-opacity="0"></use>
                    </g>
                </g>
                <g>
                    <use xlink:href="#a158JvEj6U" opacity="1" fill="#000000" fill-opacity="1"></use>
                    <g>
                        <use xlink:href="#a158JvEj6U" opacity="1" fill-opacity="0" stroke="#000000" stroke-width="1"
                             stroke-opacity="0"></use>
                    </g>
                </g>
                <g>
                    <use xlink:href="#d2tXhRSAFA" opacity="1" fill="#000000" fill-opacity="1"></use>
                    <g>
                        <use xlink:href="#d2tXhRSAFA" opacity="1" fill-opacity="0" stroke="#000000" stroke-width="1"
                             stroke-opacity="0"></use>
                    </g>
                </g>
                <g>
                    <use xlink:href="#ei6Ix6Z5d" opacity="1" fill="#000000" fill-opacity="1"></use>
                    <g>
                        <use xlink:href="#ei6Ix6Z5d" opacity="1" fill-opacity="0" stroke="#000000" stroke-width="1"
                             stroke-opacity="0"></use>
                    </g>
                </g>
                <g>
                    <use xlink:href="#azMUmG9nX" opacity="1" fill="#000000" fill-opacity="1"></use>
                    <g>
                        <use xlink:href="#azMUmG9nX" opacity="1" fill-opacity="0" stroke="#000000" stroke-width="1"
                             stroke-opacity="0"></use>
                    </g>
                </g>
                <g>
                    <use xlink:href="#c3n23HVXFO" opacity="1" fill="#000000" fill-opacity="1"></use>
                    <g>
                        <use xlink:href="#c3n23HVXFO" opacity="1" fill-opacity="0" stroke="#000000" stroke-width="1"
                             stroke-opacity="0"></use>
                    </g>
                </g>
                <g>
                    <use xlink:href="#b5PKaGdyB" opacity="1" fill="#000000" fill-opacity="1"></use>
                    <g>
                        <use xlink:href="#b5PKaGdyB" opacity="1" fill-opacity="0" stroke="#000000" stroke-width="1"
                             stroke-opacity="0"></use>
                    </g>
                </g>
                <g>
                    <use xlink:href="#ac8qOE9HE" opacity="1" fill="#000000" fill-opacity="1"></use>
                    <g>
                        <use xlink:href="#ac8qOE9HE" opacity="1" fill-opacity="0" stroke="#000000" stroke-width="1"
                             stroke-opacity="0"></use>
                    </g>
                </g>
            </g>
            <g class="rise">
                <g>
                    <use xlink:href="#a4cMz4TEJt" opacity="1" fill="#98b398" fill-opacity="1"></use>
                    <g>
                        <use xlink:href="#a4cMz4TEJt" opacity="1" fill-opacity="0" stroke="#000000" stroke-width="1"
                             stroke-opacity="0"></use>
                    </g>
                </g>
                <g>
                    <use xlink:href="#b2mo6tNi0N" opacity="1" fill="#ffd782" fill-opacity="1"></use>
                    <g>
                        <use xlink:href="#b2mo6tNi0N" opacity="1" fill-opacity="0" stroke="#000000" stroke-width="1"
                             stroke-opacity="0"></use>
                    </g>
                </g>
                <g>
                    <use xlink:href="#b3yjc7E2ir" opacity="1" fill="#ffd782" fill-opacity="1"></use>
                    <g>
                        <use xlink:href="#b3yjc7E2ir" opacity="1" fill-opacity="0" stroke="#000000" stroke-width="1"
                             stroke-opacity="0"></use>
                    </g>
                </g>
                <g>
                    <use xlink:href="#cQ0RsjZox" opacity="1" fill="#ffd782" fill-opacity="1"></use>
                    <g>
                        <use xlink:href="#cQ0RsjZox" opacity="1" fill-opacity="0" stroke="#000000" stroke-width="1"
                             stroke-opacity="0"></use>
                    </g>
                </g>
                <g>
                    <use xlink:href="#aZHkBbswV" opacity="1" fill="#ffd782" fill-opacity="1"></use>
                    <g>
                        <use xlink:href="#aZHkBbswV" opacity="1" fill-opacity="0" stroke="#000000" stroke-width="1"
                             stroke-opacity="0"></use>
                    </g>
                </g>
                <g>
                    <use xlink:href="#d95i4HYeM" opacity="1" fill="#ffd782" fill-opacity="1"></use>
                    <g>
                        <use xlink:href="#d95i4HYeM" opacity="1" fill-opacity="0" stroke="#000000" stroke-width="1"
                             stroke-opacity="0"></use>
                    </g>
                </g>
            </g>
            <g>
                <use xlink:href="#b1mUTBpH0" opacity="1" fill="#b1e19a" fill-opacity="1"></use>
                <g>
                    <use xlink:href="#b1mUTBpH0" opacity="1" fill-opacity="0" stroke="#000000" stroke-width="1"
                         stroke-opacity="1"></use>
                </g>
            </g>
            <g class="rise">
                <use xlink:href="#daITAgzvn" opacity="1" fill="#b1e19a" fill-opacity="1"></use>
                <g>
                    <use xlink:href="#daITAgzvn" opacity="1" fill-opacity="0" stroke="#000000" stroke-width="1"
                         stroke-opacity="1"></use>
                </g>
            </g>
        </g>
    </g>
</svg>
